<mxfile host="65bd71144e">
    <diagram id="LIVTcx1E754gs991MiXM" name="Page-1">
        <mxGraphModel dx="1626" dy="685" grid="1" gridSize="10" guides="1" tooltips="1" connect="1" arrows="1" fold="1" page="1" pageScale="1" pageWidth="850" pageHeight="1100" math="0" shadow="0">
            <root>
                <mxCell id="0"/>
                <mxCell id="1" parent="0"/>
                <mxCell id="2" value="Lab KVM" style="swimlane;horizontal=0;whiteSpace=wrap;html=1;" vertex="1" parent="1">
                    <mxGeometry x="20" y="20" width="1190" height="980" as="geometry"/>
                </mxCell>
                <mxCell id="13" style="edgeStyle=none;html=1;entryX=-0.067;entryY=0.52;entryDx=0;entryDy=0;entryPerimeter=0;" edge="1" parent="2" source="4" target="10">
                    <mxGeometry relative="1" as="geometry"/>
                </mxCell>
                <mxCell id="29" style="edgeStyle=none;html=1;entryX=0.5;entryY=0;entryDx=0;entryDy=0;" edge="1" parent="2" source="4" target="28">
                    <mxGeometry relative="1" as="geometry"/>
                </mxCell>
                <mxCell id="12" value="virtualization level 1" style="swimlane;whiteSpace=wrap;html=1;" vertex="1" parent="2">
                    <mxGeometry x="330" y="90" width="340" height="320" as="geometry"/>
                </mxCell>
                <mxCell id="26" style="edgeStyle=none;html=1;" edge="1" parent="12" source="10" target="5">
                    <mxGeometry relative="1" as="geometry"/>
                </mxCell>
                <mxCell id="10" value="Vagrant" style="verticalLabelPosition=bottom;html=1;verticalAlign=top;align=center;strokeColor=none;fillColor=#00BEF2;shape=mxgraph.azure.automation;pointerEvents=1;" vertex="1" parent="12">
                    <mxGeometry x="50" y="135" width="60" height="50" as="geometry"/>
                </mxCell>
                <mxCell id="5" value="Virtualbox" style="verticalLabelPosition=bottom;html=1;verticalAlign=top;strokeWidth=1;align=center;outlineConnect=0;dashed=0;outlineConnect=0;shape=mxgraph.aws3d.oracleServer;fillColor=#ECECEC;strokeColor=#5E5E5E;aspect=fixed;" vertex="1" parent="12">
                    <mxGeometry x="220" y="130" width="51.97" height="60" as="geometry"/>
                </mxCell>
                <mxCell id="46" style="edgeStyle=none;html=1;entryX=0.5;entryY=0;entryDx=0;entryDy=0;" edge="1" parent="2" source="15" target="39">
                    <mxGeometry relative="1" as="geometry"/>
                </mxCell>
                <mxCell id="15" value="virtualization level 2" style="swimlane;whiteSpace=wrap;html=1;" vertex="1" parent="2">
                    <mxGeometry x="810" y="90" width="340" height="320.2" as="geometry"/>
                </mxCell>
                <mxCell id="24" style="edgeStyle=none;html=1;entryX=0;entryY=0.5;entryDx=0;entryDy=0;" edge="1" parent="15" source="19" target="23">
                    <mxGeometry relative="1" as="geometry"/>
                </mxCell>
                <mxCell id="19" value="KVM&lt;br&gt;QEMU" style="shadow=0;dashed=0;html=1;strokeColor=none;fillColor=#4495D1;labelPosition=center;verticalLabelPosition=bottom;verticalAlign=top;align=center;outlineConnect=0;shape=mxgraph.veeam.linux_repository;" vertex="1" parent="15">
                    <mxGeometry x="51.19999999999999" y="137.6" width="48.8" height="44.8" as="geometry"/>
                </mxCell>
                <mxCell id="23" value="VM's" style="swimlane;whiteSpace=wrap;html=1;" vertex="1" parent="15">
                    <mxGeometry x="190" y="60" width="90" height="200" as="geometry"/>
                </mxCell>
                <mxCell id="20" value="" style="sketch=0;pointerEvents=1;shadow=0;dashed=0;html=1;strokeColor=none;fillColor=#005F4B;labelPosition=center;verticalLabelPosition=bottom;verticalAlign=top;align=center;outlineConnect=0;shape=mxgraph.veeam2.linux_vm;" vertex="1" parent="23">
                    <mxGeometry x="27" y="46" width="36" height="36" as="geometry"/>
                </mxCell>
                <mxCell id="21" value="" style="sketch=0;pointerEvents=1;shadow=0;dashed=0;html=1;strokeColor=none;fillColor=#005F4B;labelPosition=center;verticalLabelPosition=bottom;verticalAlign=top;align=center;outlineConnect=0;shape=mxgraph.veeam2.linux_vm;" vertex="1" parent="23">
                    <mxGeometry x="27" y="96" width="36" height="36" as="geometry"/>
                </mxCell>
                <mxCell id="47" value="" style="shadow=0;dashed=0;html=1;strokeColor=none;fillColor=#4495D1;labelPosition=center;verticalLabelPosition=bottom;verticalAlign=top;align=center;outlineConnect=0;shape=mxgraph.veeam.vm_windows;" vertex="1" parent="23">
                    <mxGeometry x="27" y="142" width="36" height="36" as="geometry"/>
                </mxCell>
                <mxCell id="27" style="edgeStyle=none;html=1;" edge="1" parent="2" source="5" target="19">
                    <mxGeometry relative="1" as="geometry"/>
                </mxCell>
                <mxCell id="38" value="" style="edgeStyle=none;html=1;startArrow=none;" edge="1" parent="2" source="48" target="36">
                    <mxGeometry relative="1" as="geometry"/>
                </mxCell>
                <mxCell id="28" value="physical network&amp;nbsp;" style="swimlane;whiteSpace=wrap;html=1;" vertex="1" parent="2">
                    <mxGeometry x="50" y="540" width="200" height="140" as="geometry"/>
                </mxCell>
                <mxCell id="7" value="public network: 192.168.0.100" style="text;html=1;align=center;verticalAlign=middle;resizable=0;points=[];autosize=1;strokeColor=none;fillColor=none;" vertex="1" parent="28">
                    <mxGeometry x="5" y="40" width="190" height="30" as="geometry"/>
                </mxCell>
                <mxCell id="30" value="physical level" style="swimlane;whiteSpace=wrap;html=1;startSize=23;" vertex="1" parent="2">
                    <mxGeometry x="50" y="90" width="200" height="320" as="geometry"/>
                </mxCell>
                <mxCell id="4" value="Desktop" style="verticalLabelPosition=bottom;html=1;verticalAlign=top;align=center;strokeColor=none;fillColor=#00BEF2;shape=mxgraph.azure.computer;pointerEvents=1;" vertex="1" parent="30">
                    <mxGeometry x="70" y="130" width="60" height="60" as="geometry"/>
                </mxCell>
                <mxCell id="41" value="" style="edgeStyle=none;html=1;startArrow=none;" edge="1" parent="2" source="50" target="39">
                    <mxGeometry relative="1" as="geometry"/>
                </mxCell>
                <mxCell id="36" value="logical network level 1" style="swimlane;whiteSpace=wrap;html=1;" vertex="1" parent="2">
                    <mxGeometry x="405" y="540" width="200" height="140" as="geometry"/>
                </mxCell>
                <mxCell id="42" value="private network&amp;nbsp; 172.36.12.1/24" style="text;html=1;align=center;verticalAlign=middle;resizable=0;points=[];autosize=1;strokeColor=none;fillColor=none;" vertex="1" parent="36">
                    <mxGeometry x="5" y="62" width="190" height="30" as="geometry"/>
                </mxCell>
                <mxCell id="44" value="private network&amp;nbsp; 10.0.1.0/24" style="text;html=1;align=center;verticalAlign=middle;resizable=0;points=[];autosize=1;strokeColor=none;fillColor=none;" vertex="1" parent="36">
                    <mxGeometry x="5" y="32" width="170" height="30" as="geometry"/>
                </mxCell>
                <mxCell id="37" value="bridge network 192.168.0.0/24" style="text;html=1;align=center;verticalAlign=middle;resizable=0;points=[];autosize=1;strokeColor=none;fillColor=none;" vertex="1" parent="36">
                    <mxGeometry x="3" y="92" width="190" height="30" as="geometry"/>
                </mxCell>
                <mxCell id="39" value="logical network level 2" style="swimlane;whiteSpace=wrap;html=1;" vertex="1" parent="2">
                    <mxGeometry x="880" y="540" width="200" height="140" as="geometry"/>
                </mxCell>
                <mxCell id="45" value="bridge network&amp;nbsp; ??" style="text;html=1;align=center;verticalAlign=middle;resizable=0;points=[];autosize=1;strokeColor=none;fillColor=none;" vertex="1" parent="39">
                    <mxGeometry x="40" y="40" width="120" height="30" as="geometry"/>
                </mxCell>
                <mxCell id="43" style="edgeStyle=none;html=1;entryX=0.47;entryY=-0.007;entryDx=0;entryDy=0;entryPerimeter=0;exitX=0.5;exitY=1;exitDx=0;exitDy=0;" edge="1" parent="2" source="12" target="36">
                    <mxGeometry relative="1" as="geometry"/>
                </mxCell>
                <mxCell id="49" value="" style="edgeStyle=none;html=1;endArrow=none;" edge="1" parent="2" source="28" target="48">
                    <mxGeometry relative="1" as="geometry">
                        <mxPoint x="270" y="630" as="sourcePoint"/>
                        <mxPoint x="425" y="630" as="targetPoint"/>
                    </mxGeometry>
                </mxCell>
                <mxCell id="48" value="bridge" style="aspect=fixed;perimeter=ellipsePerimeter;html=1;align=center;shadow=0;dashed=0;fontColor=#4277BB;labelBackgroundColor=#ffffff;fontSize=12;spacingTop=3;image;image=img/lib/ibm/vpc/Bridge.svg;" vertex="1" parent="2">
                    <mxGeometry x="310" y="595" width="30" height="30" as="geometry"/>
                </mxCell>
                <mxCell id="50" value="bridge" style="aspect=fixed;perimeter=ellipsePerimeter;html=1;align=center;shadow=0;dashed=0;fontColor=#4277BB;labelBackgroundColor=#ffffff;fontSize=12;spacingTop=3;image;image=img/lib/ibm/vpc/Bridge.svg;" vertex="1" parent="2">
                    <mxGeometry x="720" y="595" width="30" height="30" as="geometry"/>
                </mxCell>
                <mxCell id="51" value="" style="edgeStyle=none;html=1;endArrow=none;" edge="1" parent="2" source="36" target="50">
                    <mxGeometry relative="1" as="geometry">
                        <mxPoint x="625" y="630" as="sourcePoint"/>
                        <mxPoint x="900" y="630" as="targetPoint"/>
                    </mxGeometry>
                </mxCell>
            </root>
        </mxGraphModel>
    </diagram>
</mxfile>